<svg width="269" height="232" viewBox="0 0 269 232" fill="none" xmlns="http://www.w3.org/2000/svg">
<g opacity="0.5">
<path d="M226.114 191.235C222.596 192.588 219.421 194.114 216.082 194.678C212.673 195.254 209.055 195.286 205.613 194.862C190.521 193.004 181.189 200.545 174.104 212.881C172.418 215.817 168.771 218.542 165.496 219.45C159.363 221.149 154.248 216.398 154.183 209.58C154.024 192.917 153.995 176.25 154.128 159.586C154.225 147.318 147.365 139.23 134.214 139.614C114.731 140.182 95.2201 139.734 75.7213 139.777C67.1758 139.796 62.7756 144.052 62.7851 152.084C62.7948 160.407 67.3906 165.121 75.6939 165.181C83.3596 165.237 91.0323 164.996 98.6896 165.254C102.335 165.376 104.393 164.03 106.271 160.985C110.92 153.449 120.537 151.4 127.512 156.109C134.698 160.96 136.606 171.609 131.54 178.581C126.523 185.485 115.702 187.863 110.102 181.423C104.387 174.851 98.0761 175.942 91.3181 175.753C83.85 175.545 76.2513 175.956 68.9516 174.695C57.3464 172.691 50.7114 161.96 52.0835 149.046C53.0446 139.999 60.7553 129.896 72.8957 129.926C95.3939 129.983 117.893 129.792 140.39 129.972C151.195 130.058 160.206 137.26 162.764 148.01C164.094 153.604 164.577 159.492 164.695 165.262C164.967 178.562 164.781 191.872 164.781 206.824C166.653 204.441 167.685 203.325 168.494 202.066C176.873 189.022 189.261 184.092 204.224 184.276C207.723 184.319 211.231 184.367 214.72 184.161C221.086 183.786 225.233 178.831 223.945 172.59C222.85 167.287 223.061 162.655 225.945 157.778C227.07 155.877 225.593 152.437 225.195 148.703C228.122 146.653 228.942 143.165 227.45 138.313C225.938 133.394 228.706 129.663 234.209 127C240.135 124.131 240.16 124.114 236.409 118.523C234.186 115.211 231.957 111.898 229.58 108.697C224.439 101.775 221.686 94.1383 222.203 85.4351C223.97 55.6931 198.935 30.5555 170.334 26.9253C166.304 26.4137 164.75 27.5196 164.799 31.9043C165.01 51.0674 164.91 70.2343 164.881 89.3997C164.86 103.56 154.921 113.638 140.709 113.692C112.378 113.799 84.046 113.825 55.7148 113.733C51.8865 113.72 49.3814 114.713 47.0027 118.023C41.902 125.119 32.502 126.112 25.262 120.962C19.0541 116.546 17.2106 106.634 21.3369 99.8579C25.3389 93.286 35.0331 90.6317 42.1199 94.4789C44.2425 95.6312 46.3149 97.4518 47.5751 99.4841C49.5423 102.656 52.0561 103.298 55.5053 103.285C82.8366 103.183 110.168 103.261 137.5 103.237C149.973 103.226 154.97 98.188 154.993 85.6087C155.031 64.11 155.143 42.6099 154.912 21.1136C154.858 16.1727 156.56 14.8675 161.271 14.9818C197.287 15.8562 225.954 38.3451 232.249 73.7843C232.683 76.2249 233.186 78.8049 232.846 81.2051C231.372 91.6058 235.708 99.9965 241.494 107.996C244.028 111.5 246.512 115.044 248.903 118.647C253.593 125.716 252.86 129.975 245.219 133.425C240.187 135.697 237.766 137.636 238.598 143.935C239.167 148.245 236.307 152.958 237.754 157.833C238.023 158.742 236.529 160.072 236.142 161.3C235.312 163.935 233.587 166.886 234.146 169.255C236.302 178.393 232.934 185.163 226.114 191.235ZM113.789 165.511C113.515 166.45 113.075 167.376 112.995 168.331C112.668 172.266 113.976 175.253 118.281 175.826C122.497 176.387 125.08 174.153 125.337 170.111C125.46 168.174 124.635 165.421 123.232 164.302C120.457 162.089 117.09 162.241 113.789 165.511ZM31.5607 114.176C36.6195 115.538 39.9872 113.933 40.8393 109.753C41.5636 106.2 39.051 102.469 35.6072 101.984C31.4955 101.404 28.3346 103.797 28.3742 108.174C28.3911 110.053 30.0084 111.919 31.5607 114.176Z" fill="white"/>
<path d="M113.281 81.2398C111.177 80.5282 109.297 79.8479 107.413 79.8343C93.2606 79.7317 79.1064 79.8255 64.9536 79.7269C54.5304 79.6543 44.9641 73.2585 41.352 64.1873C37.1763 53.7005 39.6016 41.5961 47.3894 34.2536C52.0162 29.8913 57.7594 28.4545 63.8842 28.323C70.542 28.18 77.2101 28.0783 83.8623 28.2998C87.0542 28.4061 89.1069 27.3512 90.9477 24.7951C99.2222 13.3052 110.348 16.7831 116.56 26.1904C120.438 32.064 117.708 41.5172 111.236 45.9179C105.847 49.5825 95.8768 48.2836 92.2361 42.9705C89.9562 39.6433 87.2999 38.5353 83.4568 38.6709C76.9705 38.8997 70.4678 38.6316 63.9783 38.807C55.2817 39.042 49.9246 45.0667 50.0115 54.2244C50.0925 62.7668 55.9295 69.0498 64.157 69.0989C78.8093 69.1862 93.468 69.2975 108.11 68.8988C110.83 68.8247 113.894 66.8694 116.09 64.9649C121.604 60.1831 128.5 58.8241 134.543 62.0088C140.183 64.9809 143.692 71.6601 142.856 77.8333C141.975 84.3412 137.085 89.5284 130.664 90.7662C123.694 92.1097 117.824 88.9669 113.281 81.2398ZM122.642 79.8435C123.3 80.3373 123.998 81.2956 124.609 81.2431C127.051 81.0336 130.746 81.2996 131.596 79.921C132.934 77.7524 133.145 74.1148 132.27 71.6562C131.772 70.2575 127.645 68.7796 126.086 69.4643C123.958 70.3991 122.48 73.2292 121.229 75.5227C120.788 76.333 121.831 77.9537 122.642 79.8435ZM103.426 26.9812C99.2282 26.8382 96.9327 29.4047 97.4433 33.0316C97.7458 35.1805 100.143 37.9038 102.243 38.7295C105.508 40.0136 107.926 37.6068 108.742 34.3766C109.698 30.5901 108.218 27.9551 103.426 26.9812Z" fill="white"/>
</g>
</svg>
